<?xml version="1.0" encoding="UTF-8" standalone="no"?>
<!DOCTYPE svg PUBLIC "-//W3C//DTD SVG 1.1//EN" "http://www.w3.org/Graphics/SVG/1.1/DTD/svg11.dtd">
<svg width="100%" height="100%" viewBox="0 0 1440 356" version="1.1" xmlns="http://www.w3.org/2000/svg" xmlns:xlink="http://www.w3.org/1999/xlink" xml:space="preserve" xmlns:serif="http://www.serif.com/" style="fill-rule:evenodd;clip-rule:evenodd;stroke-linejoin:round;stroke-miterlimit:2;">
    <g transform="matrix(1,0,0,1,-33,-408.689)">
        <g transform="matrix(0.753,0,0,0.399,0,0)">
            <g transform="matrix(1.14386,0,0,2.1587,-724.963,165.814)">
                <path d="M1043,509C1043,509 975.019,455.286 963.614,446.275C962.547,445.432 961.336,444.789 960.04,444.376C956.691,443.311 949.769,441.108 945.006,439.593C941.832,438.583 938.374,439.027 935.559,440.805C932.884,442.494 929.432,444.674 926.459,446.552C922.558,449.016 917.55,448.856 913.813,446.149C907.457,441.545 897.654,434.443 891.544,430.016C888.137,427.548 883.64,427.18 879.877,429.062C876.538,430.731 872.392,432.804 868.934,434.533C864.757,436.622 859.724,435.921 856.276,432.771C851.81,428.69 845.69,423.099 841.554,419.319C838.716,416.727 834.754,415.757 831.04,416.745C820.424,419.571 798.492,425.409 789.252,427.868C786.517,428.596 784.156,430.324 782.636,432.711C779.7,437.321 774.742,445.106 771.99,449.426C770.697,451.456 768.789,453.019 766.545,453.888C760.369,456.278 747.733,461.168 744.037,462.599C743.347,462.866 742.686,463.2 742.061,463.596C738.145,466.083 723.154,475.602 719.709,477.79C719.237,478.089 718.788,478.424 718.366,478.79C714.383,482.243 693,500.783 693,500.783L717,534L1020,539L1043,509Z" style="fill:rgb(21,38,44);"/>
            </g>
        </g>
        <g transform="matrix(0.753,0,0,0.399,0,0)">
            <g transform="matrix(0.889224,0,0,1.67816,-280.243,446.349)">
                <path d="M1043,509C1043,509 976.736,456.644 964.076,446.641C962.703,445.556 961.146,444.728 959.478,444.198C956.322,443.193 950.799,441.436 946.439,440.049C942.357,438.75 937.909,439.321 934.287,441.608C932.426,442.784 930.32,444.113 928.309,445.384C923.291,448.553 916.848,448.348 912.042,444.866C906.315,440.718 898.659,435.171 893.131,431.166C888.749,427.991 882.964,427.518 878.124,429.938C875.819,431.09 873.284,432.358 870.92,433.54C865.546,436.227 859.073,435.326 854.637,431.273C850.881,427.841 846.375,423.724 842.858,420.511C839.207,417.176 834.111,415.928 829.333,417.2C818.71,420.027 799.775,425.067 790.469,427.544C786.952,428.48 783.915,430.704 781.96,433.774C779.196,438.113 775.163,444.445 772.56,448.531C770.897,451.142 768.443,453.153 765.556,454.27C759.28,456.699 748.157,461.004 744.334,462.484C743.447,462.827 742.595,463.257 741.792,463.767C737.584,466.439 723.622,475.305 719.912,477.661C719.305,478.046 718.727,478.476 718.184,478.947C713.775,482.77 693,500.783 693,500.783L717,534L1020,539L1043,509Z" style="fill:rgb(17,35,41);"/>
            </g>
        </g>
        <g transform="matrix(0.753,0,0,0.399,0,0)">
            <g transform="matrix(0.610035,0,0,1.15127,1187.16,575.002)">
                <path d="M712.648,586.05C712.648,586.05 712.638,579.823 712.648,579.05C712.657,578.278 712.326,579.248 714.648,578.05C716.97,576.853 719.116,576.546 723.648,578.05C728.179,579.555 728.258,577.528 730.648,577.05C733.037,576.572 736.399,577.037 741.648,578.05C746.896,579.064 731.364,561.316 730.648,560.05C729.932,558.785 734.311,560.702 732.648,556.05C730.984,551.399 722.906,542.295 724.648,542.05C726.389,541.805 729.89,540.436 725.648,534.05C721.406,527.665 719.573,524.732 719.648,523.05C719.723,521.369 723.117,522.592 721.648,519.05C719.323,513.447 708.789,497.267 708.789,497.267C708.789,497.267 698.325,513.397 696,519C694.531,522.541 697.925,521.319 698,523C698.075,524.681 696.242,527.615 692,534C687.758,540.385 691.258,541.755 693,542C694.742,542.245 686.664,551.349 685,556C683.336,560.651 687.716,558.735 687,560C686.284,561.265 670.752,579.013 676,578C681.248,576.987 684.61,576.522 687,577C689.39,577.478 689.468,579.505 694,578C698.532,576.495 700.678,576.803 703,578C705.322,579.197 704.991,578.227 705,579C705.009,579.773 705,586 705,586L712.648,586.05" style="fill:rgb(7,20,25);"/>
            </g>
        </g>
        <g transform="matrix(0.753,0,0,0.399,0,0)">
            <g transform="matrix(0.746725,0,0,1.40923,1111.15,435.093)">
                <path d="M712.648,586.05C712.648,586.05 712.638,579.823 712.648,579.05C712.657,578.278 712.326,579.248 714.648,578.05C716.97,576.853 719.116,576.546 723.648,578.05C728.179,579.555 728.258,577.528 730.648,577.05C733.037,576.572 736.399,577.037 741.648,578.05C746.896,579.064 731.364,561.316 730.648,560.05C729.932,558.785 734.311,560.702 732.648,556.05C730.984,551.399 722.906,542.295 724.648,542.05C726.389,541.805 729.89,540.436 725.648,534.05C721.406,527.665 719.573,524.732 719.648,523.05C719.723,521.369 723.117,522.592 721.648,519.05C719.323,513.447 708.789,497.267 708.789,497.267C708.789,497.267 698.325,513.397 696,519C694.531,522.541 697.925,521.319 698,523C698.075,524.681 696.242,527.615 692,534C687.758,540.385 691.258,541.755 693,542C694.742,542.245 686.664,551.349 685,556C683.336,560.651 687.716,558.735 687,560C686.284,561.265 670.752,579.013 676,578C681.248,576.987 684.61,576.522 687,577C689.39,577.478 689.468,579.505 694,578C698.532,576.495 700.678,576.803 703,578C705.322,579.197 704.991,578.227 705,579C705.009,579.773 705,586 705,586L712.648,586.05" style="fill:rgb(8,18,22);"/>
            </g>
        </g>
        <g transform="matrix(0.753,0,0,0.399,0,0)">
            <g transform="matrix(0.479291,0,0,0.904526,1363.66,730.876)">
                <path d="M712.648,586.05C712.648,586.05 712.638,579.823 712.648,579.05C712.657,578.278 712.326,579.248 714.648,578.05C716.97,576.853 719.116,576.546 723.648,578.05C728.179,579.555 728.258,577.528 730.648,577.05C733.037,576.572 736.399,577.037 741.648,578.05C746.896,579.064 731.364,561.316 730.648,560.05C729.932,558.785 734.311,560.702 732.648,556.05C730.984,551.399 722.906,542.295 724.648,542.05C726.389,541.805 729.89,540.436 725.648,534.05C721.406,527.665 719.573,524.732 719.648,523.05C719.723,521.369 723.117,522.592 721.648,519.05C719.323,513.447 708.789,497.267 708.789,497.267C708.789,497.267 698.325,513.397 696,519C694.531,522.541 697.925,521.319 698,523C698.075,524.681 696.242,527.615 692,534C687.758,540.385 691.258,541.755 693,542C694.742,542.245 686.664,551.349 685,556C683.336,560.651 687.716,558.735 687,560C686.284,561.265 670.752,579.013 676,578C681.248,576.987 684.61,576.522 687,577C689.39,577.478 689.468,579.505 694,578C698.532,576.495 700.678,576.803 703,578C705.322,579.197 704.991,578.227 705,579C705.009,579.773 705,586 705,586L712.648,586.05" style="fill:rgb(9,21,26);"/>
            </g>
        </g>
        <g transform="matrix(0.753,0,0,0.399,0,0)">
            <g transform="matrix(0.717987,0,0,1.355,1272.47,470.477)">
                <path d="M712.648,586.05C712.648,586.05 712.638,579.823 712.648,579.05C712.657,578.278 712.326,579.248 714.648,578.05C716.97,576.853 719.116,576.546 723.648,578.05C728.179,579.555 728.258,577.528 730.648,577.05C733.037,576.572 736.399,577.037 741.648,578.05C746.896,579.064 731.364,561.316 730.648,560.05C729.932,558.785 734.311,560.702 732.648,556.05C730.984,551.399 722.906,542.295 724.648,542.05C726.389,541.805 729.89,540.436 725.648,534.05C721.406,527.665 719.573,524.732 719.648,523.05C719.723,521.369 723.117,522.592 721.648,519.05C719.323,513.447 708.789,497.267 708.789,497.267C708.789,497.267 698.325,513.397 696,519C694.531,522.541 697.925,521.319 698,523C698.075,524.681 696.242,527.615 692,534C687.758,540.385 691.258,541.755 693,542C694.742,542.245 686.664,551.349 685,556C683.336,560.651 687.716,558.735 687,560C686.284,561.265 670.752,579.013 676,578C681.248,576.987 684.61,576.522 687,577C689.39,577.478 689.468,579.505 694,578C698.532,576.495 700.678,576.803 703,578C705.322,579.197 704.991,578.227 705,579C705.009,579.773 705,586 705,586L712.648,586.05" style="fill:rgb(9,20,24);"/>
            </g>
        </g>
        <g transform="matrix(0.753,0,0,0.399,0,0)">
            <g transform="matrix(0.886518,0,0,1.67305,1121.32,278.542)">
                <path d="M712.648,586.05C712.648,586.05 712.638,579.823 712.648,579.05C712.657,578.278 712.326,579.248 714.648,578.05C716.97,576.853 719.116,576.546 723.648,578.05C728.179,579.555 728.258,577.528 730.648,577.05C733.037,576.572 736.399,577.037 741.648,578.05C746.896,579.064 731.364,561.316 730.648,560.05C729.932,558.785 734.311,560.702 732.648,556.05C730.984,551.399 722.906,542.295 724.648,542.05C726.389,541.805 729.89,540.436 725.648,534.05C721.406,527.665 719.573,524.732 719.648,523.05C719.723,521.369 723.117,522.592 721.648,519.05C719.323,513.447 708.789,497.267 708.789,497.267C708.789,497.267 698.325,513.397 696,519C694.531,522.541 697.925,521.319 698,523C698.075,524.681 696.242,527.615 692,534C687.758,540.385 691.258,541.755 693,542C694.742,542.245 686.664,551.349 685,556C683.336,560.651 687.716,558.735 687,560C686.284,561.265 670.752,579.013 676,578C681.248,576.987 684.61,576.522 687,577C689.39,577.478 689.468,579.505 694,578C698.532,576.495 700.678,576.803 703,578C705.322,579.197 704.991,578.227 705,579C705.009,579.773 705,586 705,586L712.648,586.05" style="fill:rgb(9,22,26);"/>
            </g>
        </g>
        <g transform="matrix(0.753,0,0,0.399,0,0)">
            <g transform="matrix(1.32802,0,0,2.50627,891.463,-222)">
                <path d="M712.648,586.05C712.648,586.05 712.638,579.823 712.648,579.05C712.657,578.278 712.326,579.248 714.648,578.05C716.97,576.853 719.116,576.546 723.648,578.05C728.179,579.555 728.258,577.528 730.648,577.05C733.037,576.572 736.399,577.037 741.648,578.05C746.896,579.064 731.364,561.316 730.648,560.05C729.932,558.785 734.311,560.702 732.648,556.05C730.984,551.399 722.906,542.295 724.648,542.05C726.389,541.805 729.89,540.436 725.648,534.05C721.406,527.665 719.573,524.732 719.648,523.05C719.723,521.369 723.117,522.592 721.648,519.05C719.323,513.447 708.789,497.267 708.789,497.267C708.789,497.267 698.325,513.397 696,519C694.531,522.541 697.925,521.319 698,523C698.075,524.681 696.242,527.615 692,534C687.758,540.385 691.258,541.755 693,542C694.742,542.245 686.664,551.349 685,556C683.336,560.651 687.716,558.735 687,560C686.284,561.265 670.752,579.013 676,578C681.248,576.987 684.61,576.522 687,577C689.39,577.478 689.468,579.505 694,578C698.532,576.495 700.678,576.803 703,578C705.322,579.197 704.991,578.227 705,579C705.009,579.773 705,586 705,586L712.648,586.05" style="fill:rgb(7,16,19);"/>
            </g>
        </g>
        <g transform="matrix(0.753,0,0,0.399,0,0)">
            <g transform="matrix(0.939112,0,0,1.77231,1064.87,216.433)">
                <path d="M712.648,586.05C712.648,586.05 712.638,579.823 712.648,579.05C712.657,578.278 712.326,579.248 714.648,578.05C716.97,576.853 719.116,576.546 723.648,578.05C728.179,579.555 728.258,577.528 730.648,577.05C733.037,576.572 736.399,577.037 741.648,578.05C746.896,579.064 731.364,561.316 730.648,560.05C729.932,558.785 734.311,560.702 732.648,556.05C730.984,551.399 722.906,542.295 724.648,542.05C726.389,541.805 729.89,540.436 725.648,534.05C721.406,527.665 719.573,524.732 719.648,523.05C719.723,521.369 723.117,522.592 721.648,519.05C719.323,513.447 708.789,497.267 708.789,497.267C708.789,497.267 698.325,513.397 696,519C694.531,522.541 697.925,521.319 698,523C698.075,524.681 696.242,527.615 692,534C687.758,540.385 691.258,541.755 693,542C694.742,542.245 686.664,551.349 685,556C683.336,560.651 687.716,558.735 687,560C686.284,561.265 670.752,579.013 676,578C681.248,576.987 684.61,576.522 687,577C689.39,577.478 689.468,579.505 694,578C698.532,576.495 700.678,576.803 703,578C705.322,579.197 704.991,578.227 705,579C705.009,579.773 705,586 705,586L712.648,586.05" style="fill:rgb(7,16,19);"/>
            </g>
        </g>
        <g transform="matrix(0.753,0,0,0.399,0,0)">
            <g transform="matrix(1.11861,0,0,2.11106,876.234,12.5165)">
                <path d="M712.648,586.05C712.648,586.05 712.638,579.823 712.648,579.05C712.657,578.278 712.326,579.248 714.648,578.05C716.97,576.853 719.116,576.546 723.648,578.05C728.179,579.555 728.258,577.528 730.648,577.05C733.037,576.572 736.399,577.037 741.648,578.05C746.896,579.064 731.364,561.316 730.648,560.05C729.932,558.785 734.311,560.702 732.648,556.05C730.984,551.399 722.906,542.295 724.648,542.05C726.389,541.805 729.89,540.436 725.648,534.05C721.406,527.665 719.573,524.732 719.648,523.05C719.723,521.369 723.117,522.592 721.648,519.05C719.323,513.447 708.789,497.267 708.789,497.267C708.789,497.267 698.325,513.397 696,519C694.531,522.541 697.925,521.319 698,523C698.075,524.681 696.242,527.615 692,534C687.758,540.385 691.258,541.755 693,542C694.742,542.245 686.664,551.349 685,556C683.336,560.651 687.716,558.735 687,560C686.284,561.265 670.752,579.013 676,578C681.248,576.987 684.61,576.522 687,577C689.39,577.478 689.468,579.505 694,578C698.532,576.495 700.678,576.803 703,578C705.322,579.197 704.991,578.227 705,579C705.009,579.773 705,586 705,586L712.648,586.05" style="fill:rgb(7,16,19);"/>
            </g>
        </g>
        <g transform="matrix(0.753,0,0,0.399,0,0)">
            <g transform="matrix(1.11861,0,0,2.11106,791.404,61.4968)">
                <path d="M712.648,586.05C712.648,586.05 712.638,579.823 712.648,579.05C712.657,578.278 712.326,579.248 714.648,578.05C716.97,576.853 719.116,576.546 723.648,578.05C728.179,579.555 728.258,577.528 730.648,577.05C733.037,576.572 736.399,577.037 741.648,578.05C746.896,579.064 731.364,561.316 730.648,560.05C729.932,558.785 734.311,560.702 732.648,556.05C730.984,551.399 722.906,542.295 724.648,542.05C726.389,541.805 729.89,540.436 725.648,534.05C721.406,527.665 719.573,524.732 719.648,523.05C719.723,521.369 723.117,522.592 721.648,519.05C719.323,513.447 708.789,497.267 708.789,497.267C708.789,497.267 698.325,513.397 696,519C694.531,522.541 697.925,521.319 698,523C698.075,524.681 696.242,527.615 692,534C687.758,540.385 691.258,541.755 693,542C694.742,542.245 686.664,551.349 685,556C683.336,560.651 687.716,558.735 687,560C686.284,561.265 670.752,579.013 676,578C681.248,576.987 684.61,576.522 687,577C689.39,577.478 689.468,579.505 694,578C698.532,576.495 700.678,576.803 703,578C705.322,579.197 704.991,578.227 705,579C705.009,579.773 705,586 705,586L712.648,586.05" style="fill:rgb(7,16,19);"/>
            </g>
        </g>
        <g transform="matrix(0.753,0,0,0.399,0,0)">
            <g transform="matrix(0.626902,0,0,1.1831,1237.08,571.217)">
                <path d="M712.648,586.05C712.648,586.05 712.638,579.823 712.648,579.05C712.657,578.278 712.326,579.248 714.648,578.05C716.97,576.853 719.116,576.546 723.648,578.05C728.179,579.555 728.258,577.528 730.648,577.05C733.037,576.572 736.399,577.037 741.648,578.05C746.896,579.064 731.364,561.316 730.648,560.05C729.932,558.785 734.311,560.702 732.648,556.05C730.984,551.399 722.906,542.295 724.648,542.05C726.389,541.805 729.89,540.436 725.648,534.05C721.406,527.665 719.573,524.732 719.648,523.05C719.723,521.369 723.117,522.592 721.648,519.05C719.323,513.447 708.789,497.267 708.789,497.267C708.789,497.267 698.325,513.397 696,519C694.531,522.541 697.925,521.319 698,523C698.075,524.681 696.242,527.615 692,534C687.758,540.385 691.258,541.755 693,542C694.742,542.245 686.664,551.349 685,556C683.336,560.651 687.716,558.735 687,560C686.284,561.265 670.752,579.013 676,578C681.248,576.987 684.61,576.522 687,577C689.39,577.478 689.468,579.505 694,578C698.532,576.495 700.678,576.803 703,578C705.322,579.197 704.991,578.227 705,579C705.009,579.773 705,586 705,586L712.648,586.05" style="fill:rgb(7,16,19);"/>
            </g>
        </g>
        <g transform="matrix(0.753,0,0,0.399,0,0)">
            <g transform="matrix(0.746725,0,0,1.40923,1021.32,455.224)">
                <path d="M712.648,586.05C712.648,586.05 712.638,579.823 712.648,579.05C712.657,578.278 712.326,579.248 714.648,578.05C716.97,576.853 719.116,576.546 723.648,578.05C728.179,579.555 728.258,577.528 730.648,577.05C733.037,576.572 736.399,577.037 741.648,578.05C746.896,579.064 731.364,561.316 730.648,560.05C729.932,558.785 734.311,560.702 732.648,556.05C730.984,551.399 722.906,542.295 724.648,542.05C726.389,541.805 729.89,540.436 725.648,534.05C721.406,527.665 719.573,524.732 719.648,523.05C719.723,521.369 723.117,522.592 721.648,519.05C719.323,513.447 708.789,497.267 708.789,497.267C708.789,497.267 698.325,513.397 696,519C694.531,522.541 697.925,521.319 698,523C698.075,524.681 696.242,527.615 692,534C687.758,540.385 691.258,541.755 693,542C694.742,542.245 686.664,551.349 685,556C683.336,560.651 687.716,558.735 687,560C686.284,561.265 670.752,579.013 676,578C681.248,576.987 684.61,576.522 687,577C689.39,577.478 689.468,579.505 694,578C698.532,576.495 700.678,576.803 703,578C705.322,579.197 704.991,578.227 705,579C705.009,579.773 705,586 705,586L712.648,586.05" style="fill:rgb(7,16,19);"/>
            </g>
        </g>
        <g transform="matrix(0.753,0,0,0.399,0,0)">
            <g transform="matrix(1.32802,0,0,2.50627,-816.733,0)">
                <path d="M1043,509C1043,509 974.095,454.557 963.39,446.098C962.471,445.372 961.428,444.818 960.312,444.463C956.922,443.384 949.198,440.927 944.312,439.372C941.578,438.502 938.6,438.884 936.174,440.416C933.17,442.314 928.943,444.983 925.564,447.118C922.203,449.24 917.89,449.103 914.671,446.771C908.111,442.019 897.07,434.02 890.775,429.459C887.841,427.333 883.967,427.016 880.726,428.637C876.96,430.52 871.888,433.056 867.973,435.014C864.375,436.813 860.04,436.209 857.07,433.496C852.338,429.172 845.284,422.728 840.922,418.742C838.478,416.509 835.065,415.674 831.866,416.525C821.386,419.315 797.756,425.605 788.662,428.025C786.307,428.652 784.273,430.141 782.964,432.196C779.987,436.871 774.497,445.49 771.714,449.859C770.601,451.608 768.957,452.954 767.024,453.702C760.97,456.045 747.485,461.264 743.893,462.654C743.299,462.884 742.729,463.172 742.191,463.514C738.454,465.887 722.895,475.766 719.611,477.852C719.204,478.11 718.817,478.398 718.454,478.714C714.71,481.959 693,500.783 693,500.783L717,534L1020,539L1043,509Z" style="fill:rgb(7,16,19);"/>
            </g>
        </g>
        <g transform="matrix(0.753,0,0,0.399,0,0)">
            <g transform="matrix(1.32802,0,0,2.50627,43.8247,1221.8)">
                <rect x="0" y="0" width="1440" height="277" style="fill:rgb(7,16,19);"/>
            </g>
        </g>
    </g>
</svg>
