<?xml version="1.0" encoding="UTF-8" standalone="no"?>
<!DOCTYPE svg PUBLIC "-//W3C//DTD SVG 1.1//EN" "http://www.w3.org/Graphics/SVG/1.1/DTD/svg11.dtd">
<svg width="100%" height="100%" viewBox="0 0 6498 1034" version="1.1" xmlns="http://www.w3.org/2000/svg" xmlns:xlink="http://www.w3.org/1999/xlink" xml:space="preserve" xmlns:serif="http://www.serif.com/" style="fill-rule:evenodd;clip-rule:evenodd;stroke-linejoin:round;stroke-miterlimit:2;">
    <g transform="matrix(1,0,0,1,-712.305,-1770.77)">
        <g transform="matrix(4.16667,0,0,4.16667,0,0)">
            <g transform="matrix(1,0,0,1,205.888,638.019)">
                <path d="M0,-178.099L0,-102.065L19.865,-102.065C26.03,-102.065 30.937,-102.921 34.592,-104.633C38.242,-106.346 41.1,-108.797 43.155,-111.997C44.98,-115.192 46.237,-119.131 46.922,-123.813C47.607,-128.491 47.95,-133.917 47.95,-140.082C47.95,-146.247 47.607,-151.668 46.922,-156.35C46.237,-161.028 44.867,-165.084 42.813,-168.509C38.472,-174.899 30.252,-178.099 18.152,-178.099L0,-178.099ZM-34.935,32.88L-34.935,-210.979L21.235,-210.979C62.335,-210.979 82.885,-187.117 82.885,-139.397C82.885,-125.012 80.658,-112.794 76.206,-102.749C71.753,-92.7 63.93,-84.597 52.745,-78.432L90.419,32.88L53.43,32.88L20.893,-71.24L0,-71.24L0,32.88L-34.935,32.88Z" style="fill:rgb(9,54,65);fill-rule:nonzero;"/>
            </g>
        </g>
        <g transform="matrix(4.16667,0,0,4.16667,0,0)">
            <g transform="matrix(1,0,0,1,438.785,512.322)">
                <path d="M0,73.294L-17.125,-15.07L-17.81,-15.07L-34.935,73.294L0,73.294ZM-86.31,158.576L-31.853,-85.282L-2.74,-85.282L51.717,158.576L16.782,158.576L6.507,106.174L-41.1,106.174L-51.375,158.576L-86.31,158.576Z" style="fill:rgb(9,54,65);fill-rule:nonzero;"/>
            </g>
        </g>
        <g transform="matrix(4.16667,0,0,4.16667,0,0)">
            <g transform="matrix(1,0,0,1,0,17.938)">
                <rect x="560.028" y="409.102" width="34.935" height="243.858" style="fill:rgb(9,54,65);"/>
            </g>
        </g>
        <g transform="matrix(4.16667,0,0,4.16667,0,0)">
            <g transform="matrix(1,0,0,1,678.874,427.04)">
                <path d="M0,243.858L0,0L33.565,0L86.31,146.931L86.995,146.931L86.995,0L121.929,0L121.929,243.858L89.049,243.858L35.62,97.269L34.935,97.269L34.935,243.858L0,243.858Z" style="fill:rgb(9,54,65);fill-rule:nonzero;"/>
            </g>
        </g>
        <g transform="matrix(4.16667,0,0,4.16667,0,0)">
            <g transform="matrix(1,0,0,1,916.219,427.04)">
                <path d="M0,243.858L0,140.766L-47.95,0L-10.96,0L17.125,96.926L17.81,96.926L45.895,0L82.884,0L34.935,140.766L34.935,243.858L0,243.858Z" style="fill:rgb(9,54,65);fill-rule:nonzero;"/>
            </g>
        </g>
        <g transform="matrix(4.16667,0,0,4.16667,0,0)">
            <g transform="matrix(1,0,0,1,1102.88,638.019)">
                <path d="M0,-178.099L0,0L16.097,0C25.912,0 32.88,-2.452 36.989,-7.364C41.1,-12.271 43.154,-19.978 43.154,-30.483L43.154,-147.959C43.154,-157.549 41.212,-164.967 37.332,-170.222C33.446,-175.472 26.372,-178.099 16.097,-178.099L0,-178.099ZM-34.936,32.88L-34.936,-210.979L16.782,-210.979C36.872,-210.979 52.113,-205.499 62.506,-194.539C72.893,-183.579 78.089,-168.049 78.089,-147.959L78.089,-33.908C78.089,-11.073 72.551,5.768 61.479,16.611C50.4,27.459 34.475,32.88 13.699,32.88L-34.936,32.88Z" style="fill:rgb(9,54,65);fill-rule:nonzero;"/>
            </g>
        </g>
        <g transform="matrix(4.16667,0,0,4.16667,0,0)">
            <g transform="matrix(1,0,0,1,1331.66,512.322)">
                <path d="M0,73.294L-17.125,-15.07L-17.81,-15.07L-34.935,73.294L0,73.294ZM-86.31,158.576L-31.852,-85.282L-2.739,-85.282L51.718,158.576L16.782,158.576L6.508,106.174L-41.1,106.174L-51.374,158.576L-86.31,158.576Z" style="fill:rgb(9,54,65);fill-rule:nonzero;"/>
            </g>
        </g>
        <g transform="matrix(4.16667,0,0,4.16667,0,0)">
            <g transform="matrix(1,0,0,1,1465.58,427.04)">
                <path d="M0,243.858L0,140.766L-47.95,0L-10.96,0L17.125,96.926L17.81,96.926L45.895,0L82.884,0L34.935,140.766L34.935,243.858L0,243.858Z" style="fill:rgb(9,54,65);fill-rule:nonzero;"/>
            </g>
        </g>
        <g transform="matrix(4.16667,0,0,4.16667,0,0)">
            <g transform="matrix(1,0,0,1,1730.33,600.686)">
                <path d="M0,-103.434L-34.935,-103.434L-34.935,-111.311C-34.935,-119.301 -36.818,-126.21 -40.586,-132.033C-44.354,-137.855 -50.689,-140.766 -59.595,-140.766C-64.39,-140.766 -68.274,-139.851 -71.239,-138.026C-74.209,-136.196 -76.606,-133.916 -78.432,-131.176C-80.262,-128.206 -81.515,-124.84 -82.199,-121.073C-82.884,-117.305 -83.227,-113.366 -83.227,-109.256C-83.227,-104.461 -83.056,-100.464 -82.713,-97.269C-82.37,-94.069 -81.515,-91.216 -80.145,-88.706C-78.774,-86.191 -76.778,-84.024 -74.15,-82.199C-71.528,-80.369 -67.932,-78.544 -63.361,-76.719L-36.646,-66.101C-28.888,-63.132 -22.604,-59.648 -17.81,-55.656C-13.015,-51.658 -9.247,-47.035 -6.507,-41.785C-3.997,-36.304 -2.285,-30.08 -1.37,-23.119C-0.46,-16.151 0,-8.219 0,0.685C0,10.961 -1.027,20.497 -3.082,29.284C-5.137,38.077 -8.45,45.552 -13.015,51.717C-17.81,58.113 -24.092,63.137 -31.852,66.788C-39.617,70.437 -49.095,72.267 -60.279,72.267C-68.729,72.267 -76.606,70.78 -83.912,67.815C-91.222,64.85 -97.499,60.74 -102.749,55.485C-108.004,50.235 -112.168,44.129 -115.25,37.162C-118.333,30.199 -119.874,22.605 -119.874,14.385L-119.874,1.371L-84.939,1.371L-84.939,12.331C-84.939,18.725 -83.056,24.489 -79.288,29.627C-75.521,34.764 -69.185,37.333 -60.279,37.333C-54.345,37.333 -49.721,36.476 -46.408,34.764C-43.101,33.051 -40.532,30.6 -38.702,27.4C-36.877,24.206 -35.791,20.379 -35.448,15.926C-35.105,11.474 -34.935,6.507 -34.935,1.028C-34.935,-5.362 -35.165,-10.617 -35.619,-14.727C-36.08,-18.837 -36.989,-22.144 -38.359,-24.66C-39.96,-27.169 -42.073,-29.224 -44.695,-30.825C-47.323,-32.419 -50.807,-34.131 -55.142,-35.962L-80.145,-46.237C-95.214,-52.402 -105.317,-60.563 -110.455,-70.726C-115.593,-80.883 -118.161,-93.614 -118.161,-108.914C-118.161,-118.043 -116.909,-126.724 -114.394,-134.944C-111.884,-143.163 -108.116,-150.238 -103.092,-156.179C-98.297,-162.113 -92.19,-166.85 -84.768,-170.392C-77.351,-173.93 -68.499,-175.701 -58.225,-175.701C-49.55,-175.701 -41.613,-174.101 -34.421,-170.906C-27.229,-167.706 -21.01,-163.483 -15.755,-158.234C-5.255,-147.274 0,-134.714 0,-120.559L0,-103.434Z" style="fill:rgb(9,54,65);fill-rule:nonzero;"/>
            </g>
        </g>
    </g>
</svg>
