<svg width="367" height="107" viewBox="0 0 367 107" fill="none" xmlns="http://www.w3.org/2000/svg">
<path fill-rule="evenodd" clip-rule="evenodd" d="M261.996 76.7893C261.996 76.7893 211.108 36.5814 202.571 29.8362C201.772 29.2051 200.866 28.7238 199.896 28.4147C197.389 27.6175 192.207 25.9684 188.642 24.8343C186.266 24.0783 183.677 24.4106 181.57 25.7416C179.568 27.0059 176.984 28.6377 174.758 30.0435C171.838 31.888 168.089 31.7682 165.292 29.7419C160.534 26.2955 153.196 20.9793 148.622 17.6654C146.072 15.818 142.706 15.5425 139.889 16.9513C137.389 18.2006 134.286 19.7524 131.697 21.0466C128.57 22.6104 124.803 22.0856 122.222 19.7277C118.879 16.6728 114.298 12.4877 111.202 9.65812C109.077 7.71786 106.111 6.99176 103.331 7.73133C95.3845 9.84675 78.9671 14.2168 72.0504 16.0575C70.0031 16.6025 68.2358 17.896 67.0979 19.6828C64.9002 23.1336 61.1888 28.9611 59.1288 32.1949C58.1609 33.7144 56.7326 34.8844 55.0529 35.5349C50.4298 37.324 40.9709 40.9844 38.2043 42.0556C37.6878 42.2555 37.193 42.5055 36.7251 42.8019C33.7937 44.6636 22.5721 51.7891 19.9933 53.4269C19.64 53.6507 19.3039 53.9015 18.988 54.1755C16.0065 56.7602 0 70.6385 0 70.6385L17.9654 95.5032L244.779 99.246L261.996 76.7893Z" fill="#15262C"/>
<path fill-rule="evenodd" clip-rule="evenodd" d="M379.203 89.2615C379.203 89.2615 340.642 58.7944 333.275 52.9734C332.476 52.342 331.57 51.8602 330.6 51.5518C328.763 50.967 325.549 49.9445 323.012 49.1374C320.637 48.3815 318.048 48.7138 315.94 50.0446C314.857 50.729 313.632 51.5023 312.462 52.242C309.542 54.0861 305.792 53.9668 302.996 51.9405C299.663 49.5267 295.208 46.2988 291.991 43.9682C289.441 42.1206 286.074 41.8453 283.258 43.2536C281.917 43.9239 280.441 44.6618 279.066 45.3497C275.938 46.9133 272.172 46.389 269.59 44.0304C267.405 42.0333 264.782 39.6375 262.736 37.7678C260.611 35.8271 257.646 35.1008 254.865 35.8411C248.684 37.4861 237.665 40.419 232.249 41.8605C230.203 42.4051 228.436 43.6993 227.298 45.4858C225.689 48.0108 223.343 51.6955 221.828 54.0733C220.86 55.5927 219.432 56.7629 217.752 57.4129C214.1 58.8264 207.627 61.3316 205.402 62.1928C204.886 62.3924 204.39 62.6427 203.923 62.9394C201.474 64.4943 193.35 69.6537 191.191 71.0247C190.838 71.2487 190.501 71.4989 190.185 71.773C187.62 73.9977 175.53 84.4799 175.53 84.4799L189.496 103.81L365.819 106.719L379.203 89.2615Z" fill="#112329"/>
<path fill-rule="evenodd" clip-rule="evenodd" d="M327.627 80.6523C327.627 80.6523 267.743 33.337 258.44 25.9854C257.641 25.3545 256.735 24.873 255.765 24.5645C252.819 23.6268 246.106 21.4914 241.859 20.14C239.483 19.3839 236.895 19.7159 234.787 21.0473C232.176 22.6968 228.503 25.0164 225.566 26.8719C222.645 28.7161 218.897 28.597 216.099 26.5703C210.398 22.4405 200.803 15.4887 195.332 11.5248C192.782 9.67717 189.415 9.40165 186.598 10.8104C183.325 12.4469 178.917 14.6509 175.515 16.3526C172.388 17.916 168.621 17.3911 166.039 15.0333C161.927 11.2754 155.796 5.67505 152.006 2.21089C149.882 0.270239 146.915 -0.455452 144.135 0.284135C135.027 2.70887 114.491 8.17538 106.588 10.2786C104.541 10.8235 102.773 12.1175 101.636 13.9035C99.0483 17.9665 94.2771 25.457 91.8584 29.2541C90.8911 30.7741 89.4624 31.9438 87.7824 32.5939C82.521 34.6302 70.8015 39.1659 67.6798 40.3739C67.1636 40.5738 66.6682 40.8241 66.2006 41.1213C62.9529 43.1837 49.4309 51.7693 46.5769 53.5822C46.2232 53.8064 45.8868 54.0567 45.5713 54.3313C42.3175 57.1515 23.4499 73.5111 23.4499 73.5111L44.3077 102.379L307.638 106.725L327.627 80.6523Z" fill="#071013"/>
</svg>
